<?xml version="1.0" encoding="UTF-8"?>
<svg id="Camada_1" xmlns="http://www.w3.org/2000/svg" viewBox="0 0 733.31 165.01">
    <defs>
        <style>
            .cls-1 {
                opacity: .98;
            }
        </style>
    </defs>
    <g class="cls-1">
        <path
            d="m235.37,26.26h52.13c44.62.02,76.42,25.42,76.41,62.2,0,36.78-31.82,62.17-76.44,62.16h-52.13l.03-124.36h0Zm51.22,105.62c33.35,0,51.47-17.5,51.48-43.42s-18.1-43.44-51.46-43.45h-26.29l-.02,86.86h26.29,0Z" />
        <path
            d="m371.64,105.1c0-30.65,30.27-47.28,60.09-47.28s60.08,16.65,60.07,47.3c0,30.65-30.27,47.28-60.09,47.27-29.82,0-60.08-16.65-60.07-47.3h0Zm60.07,29.62c18.78,0,35.79-10.85,35.79-29.59s-17-29.6-35.78-29.61-36.01,10.85-36.01,29.59,17.22,29.6,36,29.61Z" />
        <path
            d="m504.17,59.59h24.3v23.47c3.98-13.66,15.47-25.22,36.45-25.21,2.65,0,4.86.18,7.29.7v18.39c-2.43-.35-4.42-.53-7.07-.53-21.87,0-36.67,12.6-36.67,31.69v42.56h-24.31l.02-91.07h0Z" />
        <path
            d="m609.87,45.1c0,5.94-4.16,10.72-12.07,10.71-7.91,0-12.09-4.95-12.09-10.89s4.19-10.89,12.09-10.89,12.07,5.13,12.06,11.07h.01Zm0,12.74l-.02,92.85h-24.14l.02-92.85s24.14,0,24.14,0Z" />
        <path
            d="m623.97,105.15c0-30.65,30.05-47.28,60.09-47.28,20.1,0,38.65,7.54,49.25,22.43l-18.11,8.93c-6.62-8.41-17.89-13.66-30.92-13.67-18.55,0-36.23,10.85-36.23,29.59s17.66,29.6,36.22,29.61c13.03,0,24.3-5.25,30.93-13.66l18.11,8.94c-10.61,14.71-29.16,22.41-49.26,22.41-30.04,0-60.08-16.65-60.07-47.3h-.01Z" />
    </g>
    <path
        d="m102.43,165.01H2.89c-.96-2.42-2.76-4.84-2.77-7.27C-.04,107.54,0,57.33,0,7.13,0,.22.19.02,6.89.02,37.57.02,68.25-.02,98.94.02c40.31.06,75.47,29.98,81.12,68.97,6.04,41.65-17.8,80.13-57.25,91.93-6.61,1.98-13.58,2.75-20.38,4.08h0Zm-16.12-121.4c-12.93,0-25.85-.02-38.78,0-6.37,0-7.22.84-7.23,7.13-.02,21.03-.02,42.05,0,63.08,0,6.27,1,7.3,7.17,7.3,25.02.02,50.05.12,75.07-.02,22.68-.13,39.78-17.06,39.73-39.02-.05-21.6-17.22-38.3-39.67-38.46-12.1-.09-24.2-.02-36.29-.02h0Zm75.13,64.72c-11.16,14.65-26.1,19.72-44.09,19.45-33.66-.5-67.34-.15-101.01-.14-8.86,0-10.55,2.12-9.09,11.41.41.12.87.38,1.32.38,35.82-.04,71.67.66,107.47-.45,20.7-.64,35.69-12.45,45.39-30.65h0Zm.15-51.62c-9.32-19.7-28.9-31.61-51.78-31.67-30.99-.09-61.98-.02-92.98-.02-9.36,0-10.98,1.91-9.58,11.86h5.75c36.46,0,72.92,0,109.38.02,2.31,0,4.65.08,6.93.39,13.52,1.86,24.1,8.64,32.27,19.42h.01Zm5.34-7.03c-.78-1.57-1.46-3.2-2.37-4.69C149.53,20.22,127.62,7.08,98.56,6.76c-27.51-.31-55.02-.07-82.54-.06-8.52,0-10.74,2.99-8.41,11.75h5.79c31.99,0,63.97-.03,95.96.04,3.96,0,7.97.21,11.87.86,19.66,3.25,34.42,13.84,45.69,30.32h0ZM7.09,157.66c.82.16,1.3.34,1.77.34,30.99,0,61.99.68,92.95-.24,26.47-.79,46.96-13.51,61.36-35.79.83-1.29,1.45-2.73,2.41-4.55-.91.22-1.08.21-1.16.29-.35.34-.73.67-1.02,1.07-13.48,18.45-31.63,27.46-54.51,27.36-30.65-.14-61.31-.03-91.96-.03-9.43,0-10.87,1.65-9.84,11.56h0Zm9.71-113.54c-9.22-1.3-10.07-.62-10.07,7.48v64.01c0,1.75.15,3.5.22,5.18,9.44.81,9.84.44,9.84-8.47V44.13h0Zm6.69,76.69c9.72.72,10.08.4,10.08-8.13V44.04c-9.36-1.09-10.08-.49-10.08,7.72v69.06Z" />
</svg>