<svg width="181" height="166" viewBox="0 0 181 166" fill="none" xmlns="http://www.w3.org/2000/svg">
<path d="M102.434 165.008H2.89444C1.93444 162.588 0.134444 160.168 0.124444 157.738C-0.0355556 107.538 0.00444444 57.3278 0.00444444 7.12778C0.00444444 0.217778 0.194445 0.0177778 6.89444 0.0177778C37.5744 0.0177778 68.2544 -0.0222222 98.9445 0.0177778C139.254 0.0777778 174.414 29.9978 180.064 68.9878C186.104 110.638 162.264 149.118 122.814 160.918C116.204 162.898 109.234 163.668 102.434 164.998V165.008ZM86.3144 43.6078C73.3844 43.6078 60.4644 43.5878 47.5344 43.6078C41.1644 43.6078 40.3144 44.4478 40.3044 50.7378C40.2844 71.7678 40.2844 92.7878 40.3044 113.818C40.3044 120.088 41.3044 121.118 47.4744 121.118C72.4944 121.138 97.5244 121.238 122.544 121.098C145.224 120.968 162.324 104.038 162.274 82.0778C162.224 60.4778 145.054 43.7778 122.604 43.6178C110.504 43.5278 98.4044 43.5978 86.3144 43.5978V43.6078ZM161.444 108.328C150.284 122.978 135.344 128.048 117.354 127.778C83.6944 127.278 50.0144 127.628 16.3444 127.638C7.48444 127.638 5.79444 129.758 7.25444 139.048C7.66444 139.168 8.12444 139.428 8.57444 139.428C44.3944 139.388 80.2444 140.088 116.044 138.978C136.744 138.338 151.734 126.528 161.434 108.328H161.444ZM161.594 56.7078C152.274 37.0078 132.694 25.0978 109.814 25.0378C78.8244 24.9478 47.8344 25.0178 16.8344 25.0178C7.47444 25.0178 5.85444 26.9278 7.25444 36.8778H13.0044C49.4644 36.8778 85.9244 36.8778 122.384 36.8978C124.694 36.8978 127.034 36.9778 129.314 37.2878C142.834 39.1478 153.414 45.9278 161.584 56.7078H161.594ZM166.934 49.6778C166.154 48.1078 165.474 46.4778 164.564 44.9878C149.534 20.2178 127.624 7.07778 98.5644 6.75778C71.0544 6.44778 43.5444 6.68778 16.0244 6.69778C7.50444 6.69778 5.28444 9.68778 7.61444 18.4478H13.4044C45.3944 18.4478 77.3744 18.4178 109.364 18.4878C113.324 18.4878 117.334 18.6978 121.234 19.3478C140.894 22.5978 155.654 33.1878 166.924 49.6678L166.934 49.6778ZM7.09444 157.658C7.91444 157.818 8.39444 157.998 8.86444 157.998C39.8544 157.998 70.8544 158.678 101.814 157.758C128.284 156.968 148.774 144.248 163.174 121.968C164.004 120.678 164.624 119.238 165.584 117.418C164.674 117.638 164.504 117.628 164.424 117.708C164.074 118.048 163.694 118.378 163.404 118.778C149.924 137.228 131.774 146.238 108.894 146.138C78.2444 145.998 47.5844 146.108 16.9344 146.108C7.50444 146.108 6.06444 147.758 7.09444 157.668V157.658ZM16.8044 44.1178C7.58444 42.8178 6.73444 43.4978 6.73444 51.5978V115.608C6.73444 117.358 6.88444 119.108 6.95444 120.788C16.3944 121.598 16.7944 121.228 16.7944 112.318V44.1278L16.8044 44.1178ZM23.4944 120.808C33.2144 121.528 33.5744 121.208 33.5744 112.678V44.0378C24.2144 42.9478 23.4944 43.5478 23.4944 51.7578V120.818V120.808Z" fill="black"/>
</svg>
